<svg t="1685522157391" class="icon" viewBox="0 0 1024 1024" version="1.1" xmlns="http://www.w3.org/2000/svg" p-id="2089" width="200" height="200"><path d="M832 229.333333a37.333333 37.333333 0 0 1 3.072 74.538667L832 304H192a37.333333 37.333333 0 0 1-3.072-74.538667L192 229.333333h640zM832 485.333333a37.333333 37.333333 0 0 1 3.072 74.538667L832 560H533.333333a37.333333 37.333333 0 0 1-3.072-74.538667L533.333333 485.333333h298.666667zM832 741.333333a37.333333 37.333333 0 0 1 3.072 74.538667L832 816H341.333333a37.333333 37.333333 0 0 1-3.072-74.538667L341.333333 741.333333h490.666667z" fill="#ffffff" p-id="2090"></path></svg>